PathFileType	4	(X/Y/Z)	C:\Users\WrightLab\Desktop\Jo\P5V212.trc
DataRate	CameraRate	NumFrames	NumMarkers	Units	OrigDataRate	OrigDataStartFrame	OrigNumFrames
100.00	100.00	       7	19	mm	100.00	176	       469
Frame#	Time	Headset_Front			Headset_Back			Headset_Left			Headset_Right			Left_Shoulder			Right_Shoulder			Sternum			C7			Left Elbow			Right Elbow			Left Wrist			Right Wrist			Left ASIS			Right ASIS			S2			Left Knee			Right Knee			Left Ankle			Right Ankle			
		X1	Y1	Z1	X2	Y2	Z2	X3	Y3	Z3	X4	Y4	Z4	X5	Y5	Z5	X6	Y6	Z6	X7	Y7	Z7	X8	Y8	Z8	X9	Y9	Z9	X10	Y10	Z10	X11	Y11	Z11	X12	Y12	Z12	X13	Y13	Z13	X14	Y14	Z14	X15	Y15	Z15	X16	Y16	Z16	X17	Y17	Z17	X18	Y18	Z18	X19	Y19	Z19	

176	1.750										-433.76288	1590.87793	-788.46295	-301.74484	1296.54431	-869.85999	-510.17865	1430.59375	-916.35956				-337.71512	1505.09509	-1068.61414	-23.52984	1186.98621	-980.27454	-617.84552	1160.38123	-942.32208	-65.88042	949.52448	-893.81250	-558.00946	1028.11084	-755.94086	-167.98399	904.31366	-897.17468	-434.24158	921.54803	-867.82520	-306.85852	955.56073	-1154.54626	-166.54967	467.43097	-951.79407	-448.33865	513.90234	-790.27032	-228.00113	67.39988	-1138.45630	-458.17288	93.14029	-823.79181	
177	1.760										-435.24796	1589.60974	-784.79834	-302.19833	1295.10303	-865.87274	-512.43176	1430.17261	-913.12537				-338.97629	1504.65112	-1065.31580	-25.01749	1187.02893	-979.06079	-618.95166	1160.33057	-938.69818	-66.94773	948.77783	-891.03467	-559.30255	1028.23865	-751.97797	-168.19513	904.36121	-893.93317	-435.43335	921.26434	-864.39813	-307.86951	955.28241	-1151.43115	-166.86305	467.59845	-950.52057	-449.45343	513.78040	-784.94958	-228.00113	67.39988	-1138.45630	-459.48404	92.62092	-812.19958	
178	1.770										-436.54825	1588.88818	-780.92572	-304.58807	1293.78503	-865.40765	-512.00238	1428.84131	-909.55426				-340.14236	1504.06689	-1061.10254	-26.44213	1185.31506	-974.35614	-620.21307	1160.14502	-935.18127	-67.56436	947.91467	-888.08295	-560.16321	1026.51758	-747.03015	-168.93607	902.81464	-892.26843	-436.57925	920.89795	-860.80054	-309.08167	955.13403	-1148.56616	-168.99988	467.12561	-947.73749	-450.54111	514.11945	-780.89594	-228.00113	67.39988	-1138.45630	-460.57419	92.21184	-801.76758	
179	1.780										-438.07022	1587.84741	-777.57477	-305.11917	1294.02759	-863.79822	-514.02277	1429.01819	-905.36273				-341.40622	1503.87573	-1057.57166	-27.65549	1185.39832	-970.89026	-621.34570	1158.91577	-930.14844	-67.54422	946.60773	-885.13324	-561.75098	1025.90686	-742.68933	-169.59778	902.18866	-888.35809	-437.27435	919.89001	-857.95465	-310.27466	955.09821	-1145.72778	-170.90161	466.75955	-946.57147	-451.92084	514.99268	-775.92755	-228.00113	67.39988	-1138.45630	-462.91440	92.63840	-790.43689	
180	1.790										-439.53452	1586.84253	-773.18390	-305.63129	1293.97717	-855.16211	-514.51294	1427.41663	-901.77393				-342.57495	1503.35803	-1053.25671	-27.99529	1185.40112	-968.24957	-622.16565	1157.78577	-925.84515	-69.75327	947.35645	-881.03668	-563.45966	1025.56506	-737.90918	-169.73965	901.91577	-883.78485	-437.76297	919.69189	-854.32477	-311.40454	954.59149	-1141.82385	-171.96536	466.67270	-944.33447	-453.57431	515.05383	-772.84882	-228.00113	67.39988	-1138.45630	-464.67352	93.59490	-779.21155	
181	1.800										-440.98489	1585.97119	-768.87524	-306.33493	1293.31848	-852.02032	-515.89911	1427.33374	-897.31726				-343.94049	1502.77881	-1049.47937	-29.78424	1183.27710	-964.53723	-623.70227	1157.93518	-922.00745	-70.82135	946.68323	-879.10236	-564.46967	1024.93994	-733.98419	-171.66833	901.04523	-881.81311	-438.63492	919.39160	-849.90094	-312.42023	954.09546	-1137.58752	-173.40172	466.62653	-942.60248	-454.49658	515.29297	-767.81384	-229.38971	67.05886	-1136.76843	-466.66174	93.05146	-767.73206	
182	1.810										-442.77826	1584.71277	-765.23438	-306.74023	1292.83521	-847.47546	-517.74847	1426.54419	-893.31421				-345.36172	1502.28589	-1045.31030	-31.18497	1183.81433	-959.72418	-624.56616	1156.81787	-917.08282	-71.70655	946.08496	-875.28125	-567.31720	1025.29675	-729.07111	-172.36971	901.51093	-877.67340	-439.27414	917.89288	-845.82141	-313.56729	954.14459	-1134.33191	-175.45479	465.72592	-939.83044	-456.18066	515.22333	-763.44482	-228.41458	67.92602	-1137.71448	-469.38779	93.21575	-757.06390	
